<?xml version="1.0" encoding="utf-8"?>
<!-- Generator: Adobe Illustrator 27.2.0, SVG Export Plug-In . SVG Version: 6.00 Build 0)  -->
<svg version="1.1" id="Layer_1" xmlns="http://www.w3.org/2000/svg" xmlns:xlink="http://www.w3.org/1999/xlink" x="0px" y="0px"
	 viewBox="0 0 1000 1000" style="enable-background:new 0 0 1000 1000;" xml:space="preserve">
<style type="text/css">
	.st0{fill:#FFFFFF;}
</style>
<g>
	<path class="st0" d="M926.2,410H73.8c-31.6,0-57.2-25.6-57.2-57.2s25.6-57.2,57.2-57.2h699.3L552.2,103.7
		C528.3,83,525.8,46.9,546.5,23c20.7-23.9,56.8-26.4,80.7-5.7l336.5,292.3c18,15.6,24.4,40.8,16.1,63.2
		C971.4,395.1,950.1,410,926.2,410z"/>
	<path class="st0" d="M410.3,996.7c-13.3,0-26.7-4.6-37.5-14L36.3,690.4c-18-15.7-24.4-40.8-16.1-63.2c8.4-22.4,29.7-37.2,53.6-37.2
		h852.4c31.6,0,57.2,25.6,57.2,57.2c0,31.6-25.6,57.2-57.2,57.2H226.9l220.9,191.9c23.9,20.7,26.4,56.8,5.7,80.7
		C442.2,990,426.3,996.7,410.3,996.7z"/>
</g>
</svg>
