<?xml version="1.0" encoding="utf-8"?>
<!-- Generator: Adobe Illustrator 27.2.0, SVG Export Plug-In . SVG Version: 6.00 Build 0)  -->
<svg version="1.1" id="Layer_1" xmlns="http://www.w3.org/2000/svg" xmlns:xlink="http://www.w3.org/1999/xlink" x="0px" y="0px"
	 viewBox="0 0 1000 1000" style="enable-background:new 0 0 1000 1000;" xml:space="preserve">
<style type="text/css">
	.st0{fill:#FFFFFF;}
</style>
<g>
	<g>
		<path class="st0" d="M154.3,471.3V184.8H318c29.1,0,51.5,7,67.2,20.9c15.7,13.9,23.6,33.7,23.6,59.2c0,14.5-2.6,26.8-7.8,36.9
			c-5.2,10.1-12.1,18.1-20.7,24c11.9,5,21.2,11.9,28,20.7c6.8,8.8,10.2,21.7,10.2,38.9c0,27-8.6,48.1-25.8,63.2
			c-17.2,15.1-41.2,22.7-72.1,22.7H154.3z M245.1,296.9h47.2c17.2,0,25.8-7.7,25.8-23.1c0-7.4-2.2-13.1-6.5-17.1
			c-4.3-4-11.2-6-20.7-6h-45.8V296.9z M245.1,405.9H294c18.1,0,27.1-8.3,27.1-24.9c0-15.4-9.3-23.1-28-23.1h-48.1V405.9z"/>
		<path class="st0" d="M445.3,471.3V184.8h95.7v286.5H445.3z"/>
		<path class="st0" d="M576.5,471.3V184.8h80.5l94.3,132.1V184.8H847v286.5h-81.4l-93.4-131.7v131.7H576.5z"/>
		<path class="st0" d="M306.9,815.2c-52.5,0-92.5-12.5-120.1-37.4c-27.6-24.9-41.4-61.2-41.4-109c0-48.3,14.4-85.3,43.2-110.8
			c28.8-25.5,70.4-38.3,125-38.3c18.4,0,34.8,1,49.2,3.1c14.4,2.1,28.3,5.3,41.6,9.8v81.4c-13.6-5-27.4-8.5-41.4-10.5
			c-13.9-1.9-28.2-2.9-42.7-2.9c-24.3,0-43.3,5.2-57,15.6c-13.6,10.4-20.5,27.9-20.5,52.5c0,23.7,5.4,40.6,16.2,50.5
			c10.8,9.9,26.6,14.9,47.4,14.9c12.7,0,24-1.5,33.8-4.4v-29.4h-52.1v-58.3h131.7v145.9c-11.6,7.4-26.7,13.8-45.4,19.1
			C355.8,812.6,333.3,815.2,306.9,815.2z"/>
		<path class="st0" d="M587.7,815.2c-32,0-59.2-4.9-81.4-14.7c-22.2-9.8-39.2-25.5-50.9-47.2c-11.7-21.6-17.6-50.1-17.6-85.4
			c0-35.9,5.9-64.7,17.6-86.3c11.7-21.6,28.7-37.4,50.9-47.2c22.2-9.8,49.4-14.7,81.4-14.7s59.2,4.9,81.4,14.7
			c22.2,9.8,39.2,25.5,50.9,47.2c11.7,21.7,17.6,50.4,17.6,86.3c0,35.3-5.9,63.8-17.6,85.4c-11.7,21.7-28.7,37.4-50.9,47.2
			C646.8,810.3,619.7,815.2,587.7,815.2z M587.7,734.3c18.4,0,31.7-5.2,39.8-15.6c8.2-10.4,12.2-27.3,12.2-50.7
			c0-24.6-4.1-41.9-12.2-51.8c-8.2-9.9-21.4-14.9-39.8-14.9c-18.7,0-32.1,5-40.3,14.9c-8.2,9.9-12.2,27.2-12.2,51.8
			c0,23.4,4.1,40.3,12.2,50.7C555.5,729.1,569,734.3,587.7,734.3z"/>
		<path class="st0" d="M755.4,810.8V744h99.2v66.7H755.4z M759.8,725.8L757.2,603v-78.8h95.7V603l-3.1,122.8H759.8z"/>
	</g>
	<path class="st0" d="M830.1,113.9c52.9,0,95.7,42.8,95.7,95.7v580.8c0,52.9-42.8,95.7-95.7,95.7H169.9c-52.9,0-95.7-42.8-95.7-95.7
		V209.6c0-52.9,42.8-95.7,95.7-95.7H830.1 M830.1,39.8H169.9c-22.9,0-45.2,4.5-66.1,13.4c-20.2,8.6-38.4,20.8-54,36.4
		s-27.8,33.7-36.4,54C4.5,164.5,0,186.7,0,209.6v580.8c0,22.9,4.5,45.2,13.4,66.1c8.6,20.2,20.8,38.4,36.4,54
		c15.6,15.6,33.7,27.8,54,36.4c21,8.9,43.2,13.4,66.1,13.4h660.3c22.9,0,45.2-4.5,66.1-13.4c20.2-8.6,38.4-20.8,54-36.4
		c15.6-15.6,27.8-33.7,36.4-54c8.9-21,13.4-43.2,13.4-66.1V209.6c0-22.9-4.5-45.2-13.4-66.1c-8.6-20.2-20.8-38.4-36.4-54
		c-15.6-15.6-33.7-27.8-54-36.4C875.3,44.3,853,39.8,830.1,39.8L830.1,39.8z"/>
</g>
<g>
</g>
<g>
</g>
<g>
</g>
<g>
</g>
<g>
</g>
</svg>
